<svg width="578" height="300" viewBox="0 0 578 300" fill="none" xmlns="http://www.w3.org/2000/svg">
<path d="M428 0L461.677 103.647H570.658L482.491 167.705L516.168 271.353L428 207.295L339.832 271.353L373.509 167.705L285.342 103.647H394.323L428 0Z" fill="#DB7499" fill-opacity="0.4"/>
<mask id="path-2-outside-1_282_733" maskUnits="userSpaceOnUse" x="0" y="128" width="410" height="140" fill="black">
<rect fill="white" y="128" width="410" height="140"/>
<path d="M163.196 168L170.826 130.06H184.056L181.186 144.13H194.836L197.706 130.06H210.936L203.306 168H190.076L192.736 154.7H179.086L176.426 168H163.196ZM233.206 168.63C229.193 168.63 225.693 167.907 222.706 166.46C219.72 165.013 217.41 163.007 215.776 160.44C214.143 157.827 213.326 154.793 213.326 151.34C213.326 147.14 214.33 143.407 216.336 140.14C218.343 136.827 221.096 134.213 224.596 132.3C228.096 130.387 232.11 129.43 236.636 129.43C240.696 129.43 244.196 130.153 247.136 131.6C250.123 133 252.433 134.983 254.066 137.55C255.7 140.117 256.516 143.15 256.516 146.65C256.516 150.85 255.513 154.607 253.506 157.92C251.5 161.233 248.746 163.847 245.246 165.76C241.746 167.673 237.733 168.63 233.206 168.63ZM233.976 158.06C235.75 158.06 237.313 157.617 238.666 156.73C240.02 155.797 241.07 154.537 241.816 152.95C242.61 151.363 243.006 149.497 243.006 147.35C243.006 145.25 242.376 143.5 241.116 142.1C239.903 140.7 238.153 140 235.866 140C234.093 140 232.53 140.443 231.176 141.33C229.823 142.217 228.75 143.477 227.956 145.11C227.21 146.697 226.836 148.563 226.836 150.71C226.836 152.95 227.466 154.747 228.726 156.1C229.986 157.407 231.736 158.06 233.976 158.06ZM258.899 168L266.529 130.06H286.409C290.889 130.06 294.343 130.853 296.769 132.44C299.243 134.027 300.479 136.313 300.479 139.3C300.479 142.473 299.056 145.04 296.209 147C293.409 148.913 289.606 149.87 284.799 149.87L285.709 147.07C289.769 147.07 292.873 147.817 295.019 149.31C297.166 150.803 298.239 153.09 298.239 156.17C298.239 159.81 296.723 162.703 293.689 164.85C290.656 166.95 286.339 168 280.739 168H258.899ZM272.479 159.39H280.949C282.629 159.39 283.959 159.017 284.939 158.27C285.919 157.523 286.409 156.567 286.409 155.4C286.409 154.373 286.059 153.627 285.359 153.16C284.706 152.647 283.749 152.39 282.489 152.39H273.879L272.479 159.39ZM275.279 145.32H282.559C284.193 145.32 285.476 144.97 286.409 144.27C287.389 143.523 287.879 142.567 287.879 141.4C287.879 140.42 287.529 139.697 286.829 139.23C286.176 138.717 285.219 138.46 283.959 138.46H276.679L275.279 145.32ZM342.688 168L350.318 130.06H363.548L355.918 168H342.688ZM328.688 141.82C333.168 141.82 336.574 142.753 338.908 144.62C341.241 146.487 342.408 149.24 342.408 152.88C342.408 155.913 341.591 158.573 339.958 160.86C338.371 163.1 336.108 164.85 333.168 166.11C330.274 167.37 326.844 168 322.878 168H302.718L310.348 130.06H323.578L321.198 141.82H328.688ZM322.878 158.9C324.138 158.9 325.211 158.667 326.098 158.2C327.031 157.733 327.754 157.103 328.268 156.31C328.781 155.517 329.038 154.56 329.038 153.44C329.038 151.107 327.614 149.94 324.768 149.94H319.588L317.838 158.9H322.878ZM386.205 168.63C382.145 168.63 378.598 167.93 375.565 166.53C372.578 165.083 370.245 163.077 368.565 160.51C366.885 157.897 366.045 154.84 366.045 151.34C366.045 147.14 367.001 143.407 368.915 140.14C370.828 136.827 373.511 134.213 376.965 132.3C380.418 130.387 384.431 129.43 389.005 129.43C392.878 129.43 396.191 130.13 398.945 131.53C401.745 132.93 403.891 134.89 405.385 137.41C406.925 139.883 407.695 142.777 407.695 146.09C407.695 147.21 407.625 148.283 407.485 149.31C407.345 150.337 407.158 151.34 406.925 152.32H376.475L377.735 145.32H400.765L395.235 147.35C395.608 145.53 395.538 144.013 395.025 142.8C394.558 141.54 393.741 140.583 392.575 139.93C391.455 139.23 390.055 138.88 388.375 138.88C386.228 138.88 384.455 139.417 383.055 140.49C381.701 141.563 380.675 143.033 379.975 144.9C379.321 146.72 378.995 148.703 378.995 150.85C378.995 153.463 379.718 155.4 381.165 156.66C382.611 157.873 384.781 158.48 387.675 158.48C389.355 158.48 390.988 158.223 392.575 157.71C394.208 157.15 395.631 156.38 396.845 155.4L402.375 163.73C399.995 165.503 397.405 166.763 394.605 167.51C391.851 168.257 389.051 168.63 386.205 168.63ZM27.8527 253L20.5027 235.29L31.4927 230.18L43.2527 253H27.8527ZM1.25273 253L8.88273 215.06H22.1827L14.5527 253H1.25273ZM13.4327 239.49L15.3927 229.06H29.1127L27.0827 239.49H13.4327ZM31.9827 235.64L19.3827 234.24L36.0427 215.06H50.4627L31.9827 235.64ZM63.9317 253.63C61.2251 253.63 58.6351 252.953 56.1617 251.6C53.6884 250.247 51.6817 248.287 50.1417 245.72C48.6484 243.153 47.9017 240.027 47.9017 236.34C47.9017 233.167 48.4384 230.25 49.5117 227.59C50.5851 224.93 52.0551 222.62 53.9217 220.66C55.8351 218.7 58.0284 217.183 60.5017 216.11C63.0217 214.99 65.6817 214.43 68.4817 214.43C71.5617 214.43 74.1984 215.037 76.3917 216.25C78.6317 217.417 80.2651 219.33 81.2917 221.99C82.3184 224.603 82.5517 228.15 81.9917 232.63C81.5717 236.877 80.5684 240.587 78.9817 243.76C77.3951 246.933 75.3417 249.383 72.8217 251.11C70.3017 252.79 67.3384 253.63 63.9317 253.63ZM68.5517 242.92C70.3251 242.92 71.8884 242.477 73.2417 241.59C74.5951 240.703 75.6451 239.467 76.3917 237.88C77.1851 236.293 77.5817 234.45 77.5817 232.35C77.5817 230.157 76.9517 228.407 75.6917 227.1C74.4317 225.747 72.6584 225.07 70.3717 225.07C68.6451 225.07 67.0817 225.537 65.6817 226.47C64.3284 227.357 63.2551 228.593 62.4617 230.18C61.7151 231.767 61.3417 233.61 61.3417 235.71C61.3417 237.903 61.9717 239.653 63.2317 240.96C64.4917 242.267 66.2651 242.92 68.5517 242.92ZM74.1517 253L75.4817 246.63L78.0017 234.1L79.6817 221.57L81.0117 215.06H94.3117L86.7517 253H74.1517ZM104.125 253L110.005 222.69L112.385 225.63H97.4054L99.5754 215.06H137.235L135.065 225.63H119.805L123.305 222.69L117.425 253H104.125ZM154.535 253.63C150.475 253.63 146.928 252.93 143.895 251.53C140.908 250.083 138.575 248.077 136.895 245.51C135.215 242.897 134.375 239.84 134.375 236.34C134.375 232.14 135.331 228.407 137.245 225.14C139.158 221.827 141.841 219.213 145.295 217.3C148.748 215.387 152.761 214.43 157.335 214.43C161.208 214.43 164.521 215.13 167.275 216.53C170.075 217.93 172.221 219.89 173.715 222.41C175.255 224.883 176.025 227.777 176.025 231.09C176.025 232.21 175.955 233.283 175.815 234.31C175.675 235.337 175.488 236.34 175.255 237.32H144.805L146.065 230.32H169.095L163.565 232.35C163.938 230.53 163.868 229.013 163.355 227.8C162.888 226.54 162.071 225.583 160.905 224.93C159.785 224.23 158.385 223.88 156.705 223.88C154.558 223.88 152.785 224.417 151.385 225.49C150.031 226.563 149.005 228.033 148.305 229.9C147.651 231.72 147.325 233.703 147.325 235.85C147.325 238.463 148.048 240.4 149.495 241.66C150.941 242.873 153.111 243.48 156.005 243.48C157.685 243.48 159.318 243.223 160.905 242.71C162.538 242.15 163.961 241.38 165.175 240.4L170.705 248.73C168.325 250.503 165.735 251.763 162.935 252.51C160.181 253.257 157.381 253.63 154.535 253.63ZM178.03 253L185.66 215.06H217.37L215.27 225.63H193.71L197.14 222.76L191.26 253H178.03ZM234.369 253.63C230.355 253.63 226.855 252.907 223.869 251.46C220.882 250.013 218.572 248.007 216.939 245.44C215.305 242.827 214.489 239.793 214.489 236.34C214.489 232.14 215.492 228.407 217.499 225.14C219.505 221.827 222.259 219.213 225.759 217.3C229.259 215.387 233.272 214.43 237.799 214.43C241.859 214.43 245.359 215.153 248.299 216.6C251.285 218 253.595 219.983 255.229 222.55C256.862 225.117 257.679 228.15 257.679 231.65C257.679 235.85 256.675 239.607 254.669 242.92C252.662 246.233 249.909 248.847 246.409 250.76C242.909 252.673 238.895 253.63 234.369 253.63ZM235.139 243.06C236.912 243.06 238.475 242.617 239.829 241.73C241.182 240.797 242.232 239.537 242.979 237.95C243.772 236.363 244.169 234.497 244.169 232.35C244.169 230.25 243.539 228.5 242.279 227.1C241.065 225.7 239.315 225 237.029 225C235.255 225 233.692 225.443 232.339 226.33C230.985 227.217 229.912 228.477 229.119 230.11C228.372 231.697 227.999 233.563 227.999 235.71C227.999 237.95 228.629 239.747 229.889 241.1C231.149 242.407 232.899 243.06 235.139 243.06ZM285.891 253.63C282.858 253.63 280.221 253.047 277.981 251.88C275.741 250.667 274.108 248.73 273.081 246.07C272.055 243.41 271.821 239.863 272.381 235.43C272.848 231.09 273.851 227.357 275.391 224.23C276.978 221.103 279.031 218.7 281.551 217.02C284.118 215.293 287.081 214.43 290.441 214.43C293.195 214.43 295.785 215.107 298.211 216.46C300.685 217.813 302.668 219.773 304.161 222.34C305.701 224.86 306.471 227.963 306.471 231.65C306.471 234.823 305.935 237.74 304.861 240.4C303.788 243.06 302.295 245.393 300.381 247.4C298.515 249.36 296.345 250.9 293.871 252.02C291.398 253.093 288.738 253.63 285.891 253.63ZM257.331 266.58L267.621 215.06H280.221L278.891 221.43L276.441 233.96L274.691 246.42L270.631 266.58H257.331ZM284.001 242.92C285.775 242.92 287.338 242.477 288.691 241.59C290.045 240.703 291.095 239.467 291.841 237.88C292.635 236.293 293.031 234.45 293.031 232.35C293.031 230.157 292.401 228.407 291.141 227.1C289.881 225.747 288.108 225.07 285.821 225.07C284.095 225.07 282.531 225.537 281.131 226.47C279.778 227.357 278.705 228.593 277.911 230.18C277.165 231.767 276.791 233.61 276.791 235.71C276.791 237.903 277.421 239.653 278.681 240.96C279.941 242.267 281.715 242.92 284.001 242.92ZM309.075 253L316.705 215.06H329.935L325.735 235.22L345.545 215.06H358.075L350.445 253H337.145L341.415 232.77L321.605 253H309.075ZM359.388 253L367.018 215.06H380.248L376.048 235.22L395.858 215.06H408.388L400.758 253H387.458L391.728 232.77L371.918 253H359.388Z"/>
</mask>
<path d="M163.196 168L170.826 130.06H184.056L181.186 144.13H194.836L197.706 130.06H210.936L203.306 168H190.076L192.736 154.7H179.086L176.426 168H163.196ZM233.206 168.63C229.193 168.63 225.693 167.907 222.706 166.46C219.72 165.013 217.41 163.007 215.776 160.44C214.143 157.827 213.326 154.793 213.326 151.34C213.326 147.14 214.33 143.407 216.336 140.14C218.343 136.827 221.096 134.213 224.596 132.3C228.096 130.387 232.11 129.43 236.636 129.43C240.696 129.43 244.196 130.153 247.136 131.6C250.123 133 252.433 134.983 254.066 137.55C255.7 140.117 256.516 143.15 256.516 146.65C256.516 150.85 255.513 154.607 253.506 157.92C251.5 161.233 248.746 163.847 245.246 165.76C241.746 167.673 237.733 168.63 233.206 168.63ZM233.976 158.06C235.75 158.06 237.313 157.617 238.666 156.73C240.02 155.797 241.07 154.537 241.816 152.95C242.61 151.363 243.006 149.497 243.006 147.35C243.006 145.25 242.376 143.5 241.116 142.1C239.903 140.7 238.153 140 235.866 140C234.093 140 232.53 140.443 231.176 141.33C229.823 142.217 228.75 143.477 227.956 145.11C227.21 146.697 226.836 148.563 226.836 150.71C226.836 152.95 227.466 154.747 228.726 156.1C229.986 157.407 231.736 158.06 233.976 158.06ZM258.899 168L266.529 130.06H286.409C290.889 130.06 294.343 130.853 296.769 132.44C299.243 134.027 300.479 136.313 300.479 139.3C300.479 142.473 299.056 145.04 296.209 147C293.409 148.913 289.606 149.87 284.799 149.87L285.709 147.07C289.769 147.07 292.873 147.817 295.019 149.31C297.166 150.803 298.239 153.09 298.239 156.17C298.239 159.81 296.723 162.703 293.689 164.85C290.656 166.95 286.339 168 280.739 168H258.899ZM272.479 159.39H280.949C282.629 159.39 283.959 159.017 284.939 158.27C285.919 157.523 286.409 156.567 286.409 155.4C286.409 154.373 286.059 153.627 285.359 153.16C284.706 152.647 283.749 152.39 282.489 152.39H273.879L272.479 159.39ZM275.279 145.32H282.559C284.193 145.32 285.476 144.97 286.409 144.27C287.389 143.523 287.879 142.567 287.879 141.4C287.879 140.42 287.529 139.697 286.829 139.23C286.176 138.717 285.219 138.46 283.959 138.46H276.679L275.279 145.32ZM342.688 168L350.318 130.06H363.548L355.918 168H342.688ZM328.688 141.82C333.168 141.82 336.574 142.753 338.908 144.62C341.241 146.487 342.408 149.24 342.408 152.88C342.408 155.913 341.591 158.573 339.958 160.86C338.371 163.1 336.108 164.85 333.168 166.11C330.274 167.37 326.844 168 322.878 168H302.718L310.348 130.06H323.578L321.198 141.82H328.688ZM322.878 158.9C324.138 158.9 325.211 158.667 326.098 158.2C327.031 157.733 327.754 157.103 328.268 156.31C328.781 155.517 329.038 154.56 329.038 153.44C329.038 151.107 327.614 149.94 324.768 149.94H319.588L317.838 158.9H322.878ZM386.205 168.63C382.145 168.63 378.598 167.93 375.565 166.53C372.578 165.083 370.245 163.077 368.565 160.51C366.885 157.897 366.045 154.84 366.045 151.34C366.045 147.14 367.001 143.407 368.915 140.14C370.828 136.827 373.511 134.213 376.965 132.3C380.418 130.387 384.431 129.43 389.005 129.43C392.878 129.43 396.191 130.13 398.945 131.53C401.745 132.93 403.891 134.89 405.385 137.41C406.925 139.883 407.695 142.777 407.695 146.09C407.695 147.21 407.625 148.283 407.485 149.31C407.345 150.337 407.158 151.34 406.925 152.32H376.475L377.735 145.32H400.765L395.235 147.35C395.608 145.53 395.538 144.013 395.025 142.8C394.558 141.54 393.741 140.583 392.575 139.93C391.455 139.23 390.055 138.88 388.375 138.88C386.228 138.88 384.455 139.417 383.055 140.49C381.701 141.563 380.675 143.033 379.975 144.9C379.321 146.72 378.995 148.703 378.995 150.85C378.995 153.463 379.718 155.4 381.165 156.66C382.611 157.873 384.781 158.48 387.675 158.48C389.355 158.48 390.988 158.223 392.575 157.71C394.208 157.15 395.631 156.38 396.845 155.4L402.375 163.73C399.995 165.503 397.405 166.763 394.605 167.51C391.851 168.257 389.051 168.63 386.205 168.63ZM27.8527 253L20.5027 235.29L31.4927 230.18L43.2527 253H27.8527ZM1.25273 253L8.88273 215.06H22.1827L14.5527 253H1.25273ZM13.4327 239.49L15.3927 229.06H29.1127L27.0827 239.49H13.4327ZM31.9827 235.64L19.3827 234.24L36.0427 215.06H50.4627L31.9827 235.64ZM63.9317 253.63C61.2251 253.63 58.6351 252.953 56.1617 251.6C53.6884 250.247 51.6817 248.287 50.1417 245.72C48.6484 243.153 47.9017 240.027 47.9017 236.34C47.9017 233.167 48.4384 230.25 49.5117 227.59C50.5851 224.93 52.0551 222.62 53.9217 220.66C55.8351 218.7 58.0284 217.183 60.5017 216.11C63.0217 214.99 65.6817 214.43 68.4817 214.43C71.5617 214.43 74.1984 215.037 76.3917 216.25C78.6317 217.417 80.2651 219.33 81.2917 221.99C82.3184 224.603 82.5517 228.15 81.9917 232.63C81.5717 236.877 80.5684 240.587 78.9817 243.76C77.3951 246.933 75.3417 249.383 72.8217 251.11C70.3017 252.79 67.3384 253.63 63.9317 253.63ZM68.5517 242.92C70.3251 242.92 71.8884 242.477 73.2417 241.59C74.5951 240.703 75.6451 239.467 76.3917 237.88C77.1851 236.293 77.5817 234.45 77.5817 232.35C77.5817 230.157 76.9517 228.407 75.6917 227.1C74.4317 225.747 72.6584 225.07 70.3717 225.07C68.6451 225.07 67.0817 225.537 65.6817 226.47C64.3284 227.357 63.2551 228.593 62.4617 230.18C61.7151 231.767 61.3417 233.61 61.3417 235.71C61.3417 237.903 61.9717 239.653 63.2317 240.96C64.4917 242.267 66.2651 242.92 68.5517 242.92ZM74.1517 253L75.4817 246.63L78.0017 234.1L79.6817 221.57L81.0117 215.06H94.3117L86.7517 253H74.1517ZM104.125 253L110.005 222.69L112.385 225.63H97.4054L99.5754 215.06H137.235L135.065 225.63H119.805L123.305 222.69L117.425 253H104.125ZM154.535 253.63C150.475 253.63 146.928 252.93 143.895 251.53C140.908 250.083 138.575 248.077 136.895 245.51C135.215 242.897 134.375 239.84 134.375 236.34C134.375 232.14 135.331 228.407 137.245 225.14C139.158 221.827 141.841 219.213 145.295 217.3C148.748 215.387 152.761 214.43 157.335 214.43C161.208 214.43 164.521 215.13 167.275 216.53C170.075 217.93 172.221 219.89 173.715 222.41C175.255 224.883 176.025 227.777 176.025 231.09C176.025 232.21 175.955 233.283 175.815 234.31C175.675 235.337 175.488 236.34 175.255 237.32H144.805L146.065 230.32H169.095L163.565 232.35C163.938 230.53 163.868 229.013 163.355 227.8C162.888 226.54 162.071 225.583 160.905 224.93C159.785 224.23 158.385 223.88 156.705 223.88C154.558 223.88 152.785 224.417 151.385 225.49C150.031 226.563 149.005 228.033 148.305 229.9C147.651 231.72 147.325 233.703 147.325 235.85C147.325 238.463 148.048 240.4 149.495 241.66C150.941 242.873 153.111 243.48 156.005 243.48C157.685 243.48 159.318 243.223 160.905 242.71C162.538 242.15 163.961 241.38 165.175 240.4L170.705 248.73C168.325 250.503 165.735 251.763 162.935 252.51C160.181 253.257 157.381 253.63 154.535 253.63ZM178.03 253L185.66 215.06H217.37L215.27 225.63H193.71L197.14 222.76L191.26 253H178.03ZM234.369 253.63C230.355 253.63 226.855 252.907 223.869 251.46C220.882 250.013 218.572 248.007 216.939 245.44C215.305 242.827 214.489 239.793 214.489 236.34C214.489 232.14 215.492 228.407 217.499 225.14C219.505 221.827 222.259 219.213 225.759 217.3C229.259 215.387 233.272 214.43 237.799 214.43C241.859 214.43 245.359 215.153 248.299 216.6C251.285 218 253.595 219.983 255.229 222.55C256.862 225.117 257.679 228.15 257.679 231.65C257.679 235.85 256.675 239.607 254.669 242.92C252.662 246.233 249.909 248.847 246.409 250.76C242.909 252.673 238.895 253.63 234.369 253.63ZM235.139 243.06C236.912 243.06 238.475 242.617 239.829 241.73C241.182 240.797 242.232 239.537 242.979 237.95C243.772 236.363 244.169 234.497 244.169 232.35C244.169 230.25 243.539 228.5 242.279 227.1C241.065 225.7 239.315 225 237.029 225C235.255 225 233.692 225.443 232.339 226.33C230.985 227.217 229.912 228.477 229.119 230.11C228.372 231.697 227.999 233.563 227.999 235.71C227.999 237.95 228.629 239.747 229.889 241.1C231.149 242.407 232.899 243.06 235.139 243.06ZM285.891 253.63C282.858 253.63 280.221 253.047 277.981 251.88C275.741 250.667 274.108 248.73 273.081 246.07C272.055 243.41 271.821 239.863 272.381 235.43C272.848 231.09 273.851 227.357 275.391 224.23C276.978 221.103 279.031 218.7 281.551 217.02C284.118 215.293 287.081 214.43 290.441 214.43C293.195 214.43 295.785 215.107 298.211 216.46C300.685 217.813 302.668 219.773 304.161 222.34C305.701 224.86 306.471 227.963 306.471 231.65C306.471 234.823 305.935 237.74 304.861 240.4C303.788 243.06 302.295 245.393 300.381 247.4C298.515 249.36 296.345 250.9 293.871 252.02C291.398 253.093 288.738 253.63 285.891 253.63ZM257.331 266.58L267.621 215.06H280.221L278.891 221.43L276.441 233.96L274.691 246.42L270.631 266.58H257.331ZM284.001 242.92C285.775 242.92 287.338 242.477 288.691 241.59C290.045 240.703 291.095 239.467 291.841 237.88C292.635 236.293 293.031 234.45 293.031 232.35C293.031 230.157 292.401 228.407 291.141 227.1C289.881 225.747 288.108 225.07 285.821 225.07C284.095 225.07 282.531 225.537 281.131 226.47C279.778 227.357 278.705 228.593 277.911 230.18C277.165 231.767 276.791 233.61 276.791 235.71C276.791 237.903 277.421 239.653 278.681 240.96C279.941 242.267 281.715 242.92 284.001 242.92ZM309.075 253L316.705 215.06H329.935L325.735 235.22L345.545 215.06H358.075L350.445 253H337.145L341.415 232.77L321.605 253H309.075ZM359.388 253L367.018 215.06H380.248L376.048 235.22L395.858 215.06H408.388L400.758 253H387.458L391.728 232.77L371.918 253H359.388Z" fill="white" fill-opacity="0.6"/>
<path d="M163.196 168L162.216 167.803L161.975 169H163.196V168ZM170.826 130.06V129.06H170.007L169.846 129.863L170.826 130.06ZM184.056 130.06L185.036 130.26L185.281 129.06H184.056V130.06ZM181.186 144.13L180.206 143.93L179.962 145.13H181.186V144.13ZM194.836 144.13V145.13H195.653L195.816 144.33L194.836 144.13ZM197.706 130.06V129.06H196.889L196.726 129.86L197.706 130.06ZM210.936 130.06L211.916 130.257L212.157 129.06H210.936V130.06ZM203.306 168V169H204.125L204.286 168.197L203.306 168ZM190.076 168L189.096 167.804L188.856 169H190.076V168ZM192.736 154.7L193.717 154.896L193.956 153.7H192.736V154.7ZM179.086 154.7V153.7H178.266L178.106 154.504L179.086 154.7ZM176.426 168V169H177.246L177.407 168.196L176.426 168ZM164.176 168.197L171.806 130.257L169.846 129.863L162.216 167.803L164.176 168.197ZM170.826 131.06H184.056V129.06H170.826V131.06ZM183.076 129.86L180.206 143.93L182.166 144.33L185.036 130.26L183.076 129.86ZM181.186 145.13H194.836V143.13H181.186V145.13ZM195.816 144.33L198.686 130.26L196.726 129.86L193.856 143.93L195.816 144.33ZM197.706 131.06H210.936V129.06H197.706V131.06ZM209.956 129.863L202.326 167.803L204.286 168.197L211.916 130.257L209.956 129.863ZM203.306 167H190.076V169H203.306V167ZM191.057 168.196L193.717 154.896L191.756 154.504L189.096 167.804L191.057 168.196ZM192.736 153.7H179.086V155.7H192.736V153.7ZM178.106 154.504L175.446 167.804L177.407 168.196L180.067 154.896L178.106 154.504ZM176.426 167H163.196V169H176.426V167ZM222.706 166.46L222.271 167.36L222.706 166.46ZM215.776 160.44L214.928 160.97L214.933 160.977L215.776 160.44ZM216.336 140.14L217.189 140.663L217.192 140.658L216.336 140.14ZM224.596 132.3L224.117 131.423L224.596 132.3ZM247.136 131.6L246.695 132.497L246.703 132.501L246.712 132.505L247.136 131.6ZM254.066 137.55L253.223 138.087L254.066 137.55ZM253.506 157.92L254.362 158.438L253.506 157.92ZM245.246 165.76L245.726 166.637L245.246 165.76ZM238.666 156.73L239.215 157.566L239.224 157.56L239.234 157.553L238.666 156.73ZM241.816 152.95L240.922 152.503L240.917 152.513L240.912 152.524L241.816 152.95ZM241.116 142.1L240.361 142.755L240.367 142.762L240.373 142.769L241.116 142.1ZM227.956 145.11L227.057 144.673L227.052 144.684L227.956 145.11ZM228.726 156.1L227.995 156.781L228.001 156.788L228.007 156.794L228.726 156.1ZM233.206 167.63C229.313 167.63 225.968 166.929 223.142 165.56L222.271 167.36C225.419 168.885 229.073 169.63 233.206 169.63V167.63ZM223.142 165.56C220.307 164.187 218.145 162.299 216.62 159.903L214.933 160.977C216.675 163.714 219.133 165.84 222.271 167.36L223.142 165.56ZM216.624 159.91C215.102 157.474 214.326 154.629 214.326 151.34H212.326C212.326 154.957 213.184 158.179 214.928 160.97L216.624 159.91ZM214.326 151.34C214.326 147.307 215.288 143.758 217.189 140.663L215.484 139.617C213.372 143.056 212.326 146.973 212.326 151.34H214.326ZM217.192 140.658C219.104 137.5 221.726 135.009 225.076 133.177L224.117 131.423C220.467 133.418 217.582 136.153 215.481 139.622L217.192 140.658ZM225.076 133.177C228.41 131.355 232.255 130.43 236.636 130.43V128.43C231.965 128.43 227.783 129.418 224.117 131.423L225.076 133.177ZM236.636 130.43C240.579 130.43 243.921 131.132 246.695 132.497L247.578 130.703C244.472 129.174 240.814 128.43 236.636 128.43V130.43ZM246.712 132.505C249.542 133.832 251.7 135.694 253.223 138.087L254.91 137.013C253.166 134.273 250.704 132.168 247.561 130.695L246.712 132.505ZM253.223 138.087C254.739 140.47 255.516 143.311 255.516 146.65H257.516C257.516 142.989 256.66 139.763 254.91 137.013L253.223 138.087ZM255.516 146.65C255.516 150.683 254.555 154.258 252.651 157.402L254.362 158.438C256.471 154.955 257.516 151.017 257.516 146.65H255.516ZM252.651 157.402C250.739 160.56 248.117 163.051 244.767 164.883L245.726 166.637C249.376 164.642 252.261 161.907 254.362 158.438L252.651 157.402ZM244.767 164.883C241.433 166.705 237.588 167.63 233.206 167.63V169.63C237.878 169.63 242.06 168.642 245.726 166.637L244.767 164.883ZM233.976 159.06C235.925 159.06 237.683 158.57 239.215 157.566L238.118 155.894C236.944 156.663 235.575 157.06 233.976 157.06V159.06ZM239.234 157.553C240.743 156.513 241.905 155.111 242.721 153.376L240.912 152.524C240.235 153.962 239.297 155.081 238.099 155.907L239.234 157.553ZM242.711 153.397C243.587 151.646 244.006 149.62 244.006 147.35H242.006C242.006 149.374 241.633 151.081 240.922 152.503L242.711 153.397ZM244.006 147.35C244.006 145.034 243.304 143.036 241.86 141.431L240.373 142.769C241.449 143.964 242.006 145.466 242.006 147.35H244.006ZM241.872 141.445C240.425 139.776 238.369 139 235.866 139V141C237.937 141 239.381 141.624 240.361 142.755L241.872 141.445ZM235.866 139C233.918 139 232.16 139.49 230.628 140.494L231.725 142.166C232.899 141.397 234.268 141 235.866 141V139ZM230.628 140.494C229.106 141.491 227.919 142.898 227.057 144.673L228.856 145.547C229.58 144.056 230.54 142.942 231.725 142.166L230.628 140.494ZM227.052 144.684C226.23 146.431 225.836 148.448 225.836 150.71H227.836C227.836 148.678 228.19 146.963 228.861 145.536L227.052 144.684ZM225.836 150.71C225.836 153.146 226.527 155.205 227.995 156.781L229.458 155.419C228.406 154.288 227.836 152.754 227.836 150.71H225.836ZM228.007 156.794C229.497 158.34 231.533 159.06 233.976 159.06V157.06C231.94 157.06 230.475 156.473 229.446 155.406L228.007 156.794ZM258.899 168L257.919 167.803L257.678 169H258.899V168ZM266.529 130.06V129.06H265.71L265.549 129.863L266.529 130.06ZM296.769 132.44L296.222 133.277L296.229 133.282L296.769 132.44ZM296.209 147L296.773 147.826L296.776 147.824L296.209 147ZM284.799 149.87L283.848 149.561L283.423 150.87H284.799V149.87ZM285.709 147.07V146.07H284.983L284.758 146.761L285.709 147.07ZM295.019 149.31L294.448 150.131L295.019 149.31ZM293.689 164.85L294.258 165.672L294.267 165.666L293.689 164.85ZM272.479 159.39L271.499 159.194L271.259 160.39H272.479V159.39ZM284.939 158.27L284.333 157.475L284.939 158.27ZM285.359 153.16L284.741 153.946L284.772 153.97L284.805 153.992L285.359 153.16ZM273.879 152.39V151.39H273.059L272.899 152.194L273.879 152.39ZM275.279 145.32L274.299 145.12L274.055 146.32H275.279V145.32ZM286.409 144.27L287.009 145.07L287.015 145.065L286.409 144.27ZM286.829 139.23L286.211 140.016L286.242 140.04L286.275 140.062L286.829 139.23ZM276.679 138.46V137.46H275.863L275.699 138.26L276.679 138.46ZM259.88 168.197L267.51 130.257L265.549 129.863L257.919 167.803L259.88 168.197ZM266.529 131.06H286.409V129.06H266.529V131.06ZM286.409 131.06C290.793 131.06 294.024 131.84 296.222 133.277L297.316 131.603C294.661 129.867 290.986 129.06 286.409 129.06V131.06ZM296.229 133.282C298.41 134.681 299.479 136.647 299.479 139.3H301.479C301.479 135.98 300.075 133.373 297.309 131.598L296.229 133.282ZM299.479 139.3C299.479 142.111 298.246 144.383 295.642 146.176L296.776 147.824C299.866 145.697 301.479 142.835 301.479 139.3H299.479ZM295.645 146.174C293.067 147.936 289.485 148.87 284.799 148.87V150.87C289.726 150.87 293.751 149.891 296.773 147.826L295.645 146.174ZM285.75 150.179L286.66 147.379L284.758 146.761L283.848 149.561L285.75 150.179ZM285.709 148.07C289.67 148.07 292.538 148.802 294.448 150.131L295.59 148.489C293.207 146.831 289.868 146.07 285.709 146.07V148.07ZM294.448 150.131C296.276 151.402 297.239 153.351 297.239 156.17H299.239C299.239 152.829 298.056 150.204 295.59 148.489L294.448 150.131ZM297.239 156.17C297.239 159.478 295.887 162.07 293.112 164.034L294.267 165.666C297.559 163.337 299.239 160.142 299.239 156.17H297.239ZM293.12 164.028C290.32 165.966 286.235 167 280.739 167V169C286.444 169 290.992 167.934 294.258 165.672L293.12 164.028ZM280.739 167H258.899V169H280.739V167ZM272.479 160.39H280.949V158.39H272.479V160.39ZM280.949 160.39C282.77 160.39 284.338 159.986 285.545 159.065L284.333 157.475C283.581 158.048 282.489 158.39 280.949 158.39V160.39ZM285.545 159.065C286.757 158.142 287.409 156.899 287.409 155.4H285.409C285.409 156.235 285.081 156.905 284.333 157.475L285.545 159.065ZM287.409 155.4C287.409 154.123 286.956 153.022 285.914 152.328L284.805 153.992C285.163 154.231 285.409 154.624 285.409 155.4H287.409ZM285.977 152.374C285.077 151.667 283.863 151.39 282.489 151.39V153.39C283.635 153.39 284.335 153.627 284.741 153.946L285.977 152.374ZM282.489 151.39H273.879V153.39H282.489V151.39ZM272.899 152.194L271.499 159.194L273.46 159.586L274.86 152.586L272.899 152.194ZM275.279 146.32H282.559V144.32H275.279V146.32ZM282.559 146.32C284.324 146.32 285.846 145.943 287.009 145.07L285.809 143.47C285.106 143.997 284.061 144.32 282.559 144.32V146.32ZM287.015 145.065C288.227 144.142 288.879 142.899 288.879 141.4H286.879C286.879 142.235 286.551 142.905 285.803 143.475L287.015 145.065ZM288.879 141.4C288.879 140.15 288.411 139.083 287.384 138.398L286.275 140.062C286.647 140.31 286.879 140.69 286.879 141.4H288.879ZM287.447 138.444C286.547 137.737 285.333 137.46 283.959 137.46V139.46C285.105 139.46 285.805 139.697 286.211 140.016L287.447 138.444ZM283.959 137.46H276.679V139.46H283.959V137.46ZM275.699 138.26L274.299 145.12L276.259 145.52L277.659 138.66L275.699 138.26ZM342.688 168L341.707 167.803L341.466 169H342.688V168ZM350.318 130.06V129.06H349.499L349.337 129.863L350.318 130.06ZM363.548 130.06L364.528 130.257L364.769 129.06H363.548V130.06ZM355.918 168V169H356.736L356.898 168.197L355.918 168ZM338.908 144.62L339.532 143.839L338.908 144.62ZM339.958 160.86L339.144 160.279L339.142 160.282L339.958 160.86ZM333.168 166.11L332.774 165.191L332.768 165.193L333.168 166.11ZM302.718 168L301.737 167.803L301.496 169H302.718V168ZM310.348 130.06V129.06H309.529L309.367 129.863L310.348 130.06ZM323.578 130.06L324.558 130.258L324.8 129.06H323.578V130.06ZM321.198 141.82L320.217 141.622L319.975 142.82H321.198V141.82ZM326.098 158.2L325.65 157.306L325.641 157.31L325.632 157.315L326.098 158.2ZM328.268 156.31L329.107 156.853V156.853L328.268 156.31ZM319.588 149.94V148.94H318.764L318.606 149.748L319.588 149.94ZM317.838 158.9L316.856 158.708L316.623 159.9H317.838V158.9ZM343.668 168.197L351.298 130.257L349.337 129.863L341.707 167.803L343.668 168.197ZM350.318 131.06H363.548V129.06H350.318V131.06ZM362.567 129.863L354.937 167.803L356.898 168.197L364.528 130.257L362.567 129.863ZM355.918 167H342.688V169H355.918V167ZM328.688 142.82C333.049 142.82 336.196 143.732 338.283 145.401L339.532 143.839C336.952 141.775 333.286 140.82 328.688 140.82V142.82ZM338.283 145.401C340.327 147.036 341.408 149.471 341.408 152.88H343.408C343.408 149.009 342.155 145.937 339.532 143.839L338.283 145.401ZM341.408 152.88C341.408 155.722 340.646 158.175 339.144 160.279L340.771 161.441C342.536 158.971 343.408 156.104 343.408 152.88H341.408ZM339.142 160.282C337.678 162.348 335.573 163.991 332.774 165.191L333.561 167.029C336.643 165.709 339.064 163.852 340.774 161.438L339.142 160.282ZM332.768 165.193C330.029 166.386 326.741 167 322.878 167V169C326.948 169 330.52 168.354 333.567 167.027L332.768 165.193ZM322.878 167H302.718V169H322.878V167ZM303.698 168.197L311.328 130.257L309.367 129.863L301.737 167.803L303.698 168.197ZM310.348 131.06H323.578V129.06H310.348V131.06ZM322.597 129.862L320.217 141.622L322.178 142.018L324.558 130.258L322.597 129.862ZM321.198 142.82H328.688V140.82H321.198V142.82ZM322.878 159.9C324.259 159.9 325.501 159.644 326.563 159.085L325.632 157.315C324.921 157.689 324.016 157.9 322.878 157.9V159.9ZM326.545 159.094C327.621 158.556 328.487 157.812 329.107 156.853L327.428 155.767C327.022 156.395 326.441 156.91 325.65 157.306L326.545 159.094ZM329.107 156.853C329.743 155.87 330.038 154.716 330.038 153.44H328.038C328.038 154.404 327.819 155.163 327.428 155.767L329.107 156.853ZM330.038 153.44C330.038 152.061 329.607 150.864 328.604 150.042C327.639 149.25 326.302 148.94 324.768 148.94V150.94C326.08 150.94 326.878 151.213 327.336 151.588C327.756 151.933 328.038 152.486 328.038 153.44H330.038ZM324.768 148.94H319.588V150.94H324.768V148.94ZM318.606 149.748L316.856 158.708L318.819 159.092L320.569 150.132L318.606 149.748ZM317.838 159.9H322.878V157.9H317.838V159.9ZM375.565 166.53L375.129 167.43L375.137 167.434L375.146 167.438L375.565 166.53ZM368.565 160.51L367.723 161.051L367.728 161.058L368.565 160.51ZM368.915 140.14L369.777 140.645L369.781 140.64L368.915 140.14ZM376.965 132.3L376.48 131.425L376.965 132.3ZM398.945 131.53L398.491 132.421L398.497 132.424L398.945 131.53ZM405.385 137.41L404.524 137.92L404.53 137.929L404.536 137.939L405.385 137.41ZM407.485 149.31L406.494 149.175L407.485 149.31ZM406.925 152.32V153.32H407.714L407.897 152.552L406.925 152.32ZM376.475 152.32L375.49 152.143L375.279 153.32H376.475V152.32ZM377.735 145.32V144.32H376.899L376.75 145.143L377.735 145.32ZM400.765 145.32L401.109 146.259L400.765 144.32V145.32ZM395.235 147.35L394.255 147.149L393.894 148.907L395.579 148.289L395.235 147.35ZM395.025 142.8L394.087 143.147L394.095 143.169L394.104 143.19L395.025 142.8ZM392.575 139.93L392.045 140.778L392.065 140.791L392.086 140.803L392.575 139.93ZM383.055 140.49L382.446 139.696L382.44 139.701L382.433 139.707L383.055 140.49ZM379.975 144.9L379.038 144.549L379.033 144.562L379.975 144.9ZM381.165 156.66L380.508 157.414L380.515 157.42L380.522 157.426L381.165 156.66ZM392.575 157.71L392.882 158.661L392.891 158.659L392.899 158.656L392.575 157.71ZM396.845 155.4L397.678 154.847L397.07 153.932L396.216 154.622L396.845 155.4ZM402.375 163.73L402.972 164.532L403.732 163.966L403.208 163.177L402.375 163.73ZM394.605 167.51L394.347 166.544L394.343 166.545L394.605 167.51ZM386.205 167.63C382.259 167.63 378.86 166.95 375.984 165.622L375.146 167.438C378.335 168.91 382.03 169.63 386.205 169.63V167.63ZM376.001 165.63C373.163 164.256 370.974 162.365 369.401 159.962L367.728 161.058C369.515 163.788 371.993 165.911 375.129 167.43L376.001 165.63ZM369.406 159.969C367.842 157.537 367.045 154.673 367.045 151.34H365.045C365.045 155.007 365.927 158.256 367.723 161.051L369.406 159.969ZM367.045 151.34C367.045 147.298 367.964 143.742 369.777 140.645L368.052 139.635C366.039 143.071 365.045 146.982 365.045 151.34H367.045ZM369.781 140.64C371.6 137.489 374.149 135.003 377.449 133.175L376.48 131.425C372.873 133.424 370.056 136.164 368.049 139.64L369.781 140.64ZM377.449 133.175C380.732 131.356 384.574 130.43 389.005 130.43V128.43C384.289 128.43 380.104 129.418 376.48 131.425L377.449 133.175ZM389.005 130.43C392.76 130.43 395.91 131.109 398.491 132.421L399.398 130.639C396.473 129.151 392.996 128.43 389.005 128.43V130.43ZM398.497 132.424C401.138 133.745 403.136 135.576 404.524 137.92L406.245 136.9C404.647 134.203 402.351 132.115 399.392 130.636L398.497 132.424ZM404.536 137.939C405.964 140.232 406.695 142.937 406.695 146.09H408.695C408.695 142.616 407.885 139.534 406.234 136.881L404.536 137.939ZM406.695 146.09C406.695 147.168 406.627 148.196 406.494 149.175L408.475 149.445C408.622 148.37 408.695 147.252 408.695 146.09H406.695ZM406.494 149.175C406.358 150.17 406.177 151.141 405.952 152.088L407.897 152.552C408.139 151.539 408.331 150.503 408.475 149.445L406.494 149.175ZM406.925 151.32H376.475V153.32H406.925V151.32ZM377.459 152.497L378.719 145.497L376.75 145.143L375.49 152.143L377.459 152.497ZM377.735 146.32H400.765V144.32H377.735V146.32ZM400.42 144.381L394.89 146.411L395.579 148.289L401.109 146.259L400.42 144.381ZM396.214 147.551C396.612 145.611 396.564 143.872 395.946 142.41L394.104 143.19C394.512 144.154 394.604 145.449 394.255 147.149L396.214 147.551ZM395.962 142.453C395.414 140.971 394.438 139.828 393.063 139.057L392.086 140.803C393.044 141.339 393.702 142.109 394.087 143.147L395.962 142.453ZM393.105 139.082C391.788 138.259 390.192 137.88 388.375 137.88V139.88C389.918 139.88 391.121 140.201 392.045 140.778L393.105 139.082ZM388.375 137.88C386.057 137.88 384.056 138.462 382.446 139.696L383.663 141.284C384.853 140.371 386.399 139.88 388.375 139.88V137.88ZM382.433 139.707C380.917 140.909 379.792 142.539 379.038 144.549L380.911 145.251C381.557 143.528 382.486 142.218 383.676 141.273L382.433 139.707ZM379.033 144.562C378.337 146.502 377.995 148.601 377.995 150.85H379.995C379.995 148.806 380.305 146.938 380.916 145.238L379.033 144.562ZM377.995 150.85C377.995 153.643 378.772 155.902 380.508 157.414L381.821 155.906C380.664 154.898 379.995 153.284 379.995 150.85H377.995ZM380.522 157.426C382.223 158.853 384.666 159.48 387.675 159.48V157.48C384.897 157.48 383 156.894 381.807 155.894L380.522 157.426ZM387.675 159.48C389.458 159.48 391.196 159.207 392.882 158.661L392.267 156.759C390.78 157.239 389.251 157.48 387.675 157.48V159.48ZM392.899 158.656C394.631 158.062 396.16 157.239 397.473 156.178L396.216 154.622C395.103 155.521 393.785 156.238 392.25 156.764L392.899 158.656ZM396.011 155.953L401.541 164.283L403.208 163.177L397.678 154.847L396.011 155.953ZM401.777 162.928C399.496 164.627 397.021 165.831 394.347 166.544L394.862 168.476C397.788 167.696 400.493 166.379 402.972 164.532L401.777 162.928ZM394.343 166.545C391.675 167.268 388.963 167.63 386.205 167.63V169.63C389.14 169.63 392.028 169.245 394.866 168.475L394.343 166.545ZM27.8527 253L26.9291 253.383L27.1851 254H27.8527V253ZM20.5027 235.29L20.0811 234.383L19.2115 234.788L19.5791 235.673L20.5027 235.29ZM31.4927 230.18L32.3816 229.722L31.9418 228.868L31.0711 229.273L31.4927 230.18ZM43.2527 253V254H44.8931L44.1416 252.542L43.2527 253ZM1.25273 253L0.272363 252.803L0.0316059 254H1.25273V253ZM8.88273 215.06V214.06H8.06382L7.90236 214.863L8.88273 215.06ZM22.1827 215.06L23.1631 215.257L23.4039 214.06H22.1827V215.06ZM14.5527 253V254H15.3716L15.5331 253.197L14.5527 253ZM13.4327 239.49L12.4499 239.305L12.2273 240.49H13.4327V239.49ZM15.3927 229.06V228.06H14.5632L14.4099 228.875L15.3927 229.06ZM29.1127 229.06L30.0943 229.251L30.3261 228.06H29.1127V229.06ZM27.0827 239.49V240.49H27.9069L28.0643 239.681L27.0827 239.49ZM31.9827 235.64L31.8723 236.634L32.3833 236.691L32.7268 236.308L31.9827 235.64ZM19.3827 234.24L18.6278 233.584L17.3777 235.023L19.2723 235.234L19.3827 234.24ZM36.0427 215.06V214.06H35.5868L35.2878 214.404L36.0427 215.06ZM50.4627 215.06L51.2068 215.728L52.7047 214.06H50.4627V215.06ZM28.7764 252.617L21.4264 234.907L19.5791 235.673L26.9291 253.383L28.7764 252.617ZM20.9244 236.197L31.9144 231.087L31.0711 229.273L20.0811 234.383L20.9244 236.197ZM30.6038 230.638L42.3638 253.458L44.1416 252.542L32.3816 229.722L30.6038 230.638ZM43.2527 252H27.8527V254H43.2527V252ZM2.23311 253.197L9.86311 215.257L7.90236 214.863L0.272363 252.803L2.23311 253.197ZM8.88273 216.06H22.1827V214.06H8.88273V216.06ZM21.2024 214.863L13.5724 252.803L15.5331 253.197L23.1631 215.257L21.2024 214.863ZM14.5527 252H1.25273V254H14.5527V252ZM14.4155 239.675L16.3755 229.245L14.4099 228.875L12.4499 239.305L14.4155 239.675ZM15.3927 230.06H29.1127V228.06H15.3927V230.06ZM28.1312 228.869L26.1012 239.299L28.0643 239.681L30.0943 229.251L28.1312 228.869ZM27.0827 238.49H13.4327V240.49H27.0827V238.49ZM32.0932 234.646L19.4932 233.246L19.2723 235.234L31.8723 236.634L32.0932 234.646ZM20.1377 234.896L36.7977 215.716L35.2878 214.404L18.6278 233.584L20.1377 234.896ZM36.0427 216.06H50.4627V214.06H36.0427V216.06ZM49.7187 214.392L31.2387 234.972L32.7268 236.308L51.2068 215.728L49.7187 214.392ZM56.1617 251.6L56.6417 250.723L56.1617 251.6ZM50.1417 245.72L49.2773 246.223L49.2842 246.234L50.1417 245.72ZM49.5117 227.59L50.4391 227.964L49.5117 227.59ZM53.9217 220.66L53.2061 219.961L53.1976 219.97L53.9217 220.66ZM60.5017 216.11L60.8998 217.027L60.9079 217.024L60.5017 216.11ZM76.3917 216.25L75.9077 217.125L75.9186 217.131L75.9298 217.137L76.3917 216.25ZM81.2917 221.99L80.3588 222.35L80.361 222.356L81.2917 221.99ZM81.9917 232.63L80.9994 232.506L80.9978 232.519L80.9966 232.532L81.9917 232.63ZM78.9817 243.76L79.8761 244.207L78.9817 243.76ZM72.8217 251.11L73.3765 251.942L73.3869 251.935L72.8217 251.11ZM73.2417 241.59L73.7897 242.426L73.2417 241.59ZM76.3917 237.88L75.4973 237.433L75.492 237.443L75.4869 237.454L76.3917 237.88ZM75.6917 227.1L74.9598 227.781L74.9658 227.788L74.9719 227.794L75.6917 227.1ZM65.6817 226.47L66.2298 227.306L66.2364 227.302L65.6817 226.47ZM62.4617 230.18L61.5673 229.733L61.562 229.743L61.5569 229.754L62.4617 230.18ZM63.2317 240.96L63.9516 240.266L63.2317 240.96ZM74.1517 253L73.1728 252.796L72.9214 254H74.1517V253ZM75.4817 246.63L76.4606 246.834L76.4621 246.827L75.4817 246.63ZM78.0017 234.1L78.9821 234.297L78.9885 234.265L78.9929 234.233L78.0017 234.1ZM79.6817 221.57L78.702 221.37L78.6951 221.403L78.6906 221.437L79.6817 221.57ZM81.0117 215.06V214.06H80.1954L80.032 214.86L81.0117 215.06ZM94.3117 215.06L95.2924 215.255L95.5306 214.06H94.3117V215.06ZM86.7517 253V254H87.5721L87.7324 253.195L86.7517 253ZM63.9317 252.63C61.3999 252.63 58.9743 251.999 56.6417 250.723L55.6817 252.477C58.2959 253.908 61.0502 254.63 63.9317 254.63V252.63ZM56.6417 250.723C54.3339 249.46 52.4537 247.63 50.9992 245.206L49.2842 246.234C50.9098 248.944 53.0429 251.033 55.6817 252.477L56.6417 250.723ZM51.0061 245.217C49.6207 242.836 48.9017 239.892 48.9017 236.34H46.9017C46.9017 240.161 47.6761 243.471 49.2774 246.223L51.0061 245.217ZM48.9017 236.34C48.9017 233.281 49.4186 230.493 50.4391 227.964L48.5844 227.216C47.4582 230.007 46.9017 233.052 46.9017 236.34H48.9017ZM50.4391 227.964C51.468 225.414 52.8713 223.213 54.6459 221.35L53.1976 219.97C51.2388 222.027 49.7021 224.446 48.5844 227.216L50.4391 227.964ZM54.6373 221.359C56.4615 219.49 58.5474 218.048 60.8998 217.027L60.1036 215.193C57.5093 216.318 55.2086 217.91 53.2061 219.961L54.6373 221.359ZM60.9079 217.024C63.298 215.962 65.8194 215.43 68.4817 215.43V213.43C65.544 213.43 62.7454 214.018 60.0956 215.196L60.9079 217.024ZM68.4817 215.43C71.4307 215.43 73.8928 216.01 75.9077 217.125L76.8758 215.375C74.504 214.063 71.6927 213.43 68.4817 213.43V215.43ZM75.9298 217.137C77.9259 218.177 79.4077 219.886 80.3588 222.35L82.2246 221.63C81.1224 218.774 79.3376 216.657 76.8537 215.363L75.9298 217.137ZM80.361 222.356C81.3002 224.746 81.55 228.101 80.9994 232.506L82.984 232.754C83.5534 228.199 83.3366 224.46 82.2225 221.624L80.361 222.356ZM80.9966 232.532C80.5862 236.681 79.6096 240.268 78.0873 243.313L79.8761 244.207C81.5272 240.905 82.5572 237.073 82.9869 232.728L80.9966 232.532ZM78.0873 243.313C76.5642 246.359 74.6153 248.669 72.2565 250.285L73.3869 251.935C76.0681 250.098 78.2259 247.508 79.8761 244.207L78.0873 243.313ZM72.267 250.278C69.9313 251.835 67.1665 252.63 63.9317 252.63V254.63C67.5103 254.63 70.6721 253.745 73.3764 251.942L72.267 250.278ZM68.5517 243.92C70.5003 243.92 72.258 243.43 73.7897 242.426L72.6937 240.754C71.5188 241.523 70.1498 241.92 68.5517 241.92V243.92ZM73.7897 242.426C75.3106 241.43 76.478 240.045 77.2965 238.306L75.4869 237.454C74.8121 238.888 73.8795 239.977 72.6937 240.754L73.7897 242.426ZM77.2861 238.327C78.1606 236.578 78.5817 234.577 78.5817 232.35H76.5817C76.5817 234.323 76.2095 236.008 75.4973 237.433L77.2861 238.327ZM78.5817 232.35C78.5817 229.955 77.8875 227.936 76.4116 226.406L74.9719 227.794C76.016 228.877 76.5817 230.358 76.5817 232.35H78.5817ZM76.4236 226.419C74.9313 224.816 72.8656 224.07 70.3717 224.07V226.07C72.4512 226.07 73.9322 226.678 74.9598 227.781L76.4236 226.419ZM70.3717 224.07C68.4531 224.07 66.6958 224.592 65.127 225.638L66.2364 227.302C67.4676 226.481 68.837 226.07 70.3717 226.07V224.07ZM65.1337 225.634C63.6185 226.626 62.4318 228.004 61.5673 229.733L63.3561 230.627C64.0783 229.183 65.0383 228.087 66.2297 227.306L65.1337 225.634ZM61.5569 229.754C60.7364 231.498 60.3417 233.491 60.3417 235.71H62.3417C62.3417 233.729 62.6937 232.036 63.3665 230.606L61.5569 229.754ZM60.3417 235.71C60.3417 238.105 61.036 240.124 62.5119 241.654L63.9516 240.266C62.9075 239.183 62.3417 237.702 62.3417 235.71H60.3417ZM62.5119 241.654C64.0066 243.204 66.0683 243.92 68.5517 243.92V241.92C66.4618 241.92 64.9769 241.329 63.9516 240.266L62.5119 241.654ZM75.1306 253.204L76.4606 246.834L74.5028 246.426L73.1728 252.796L75.1306 253.204ZM76.4621 246.827L78.9821 234.297L77.0213 233.903L74.5014 246.433L76.4621 246.827ZM78.9929 234.233L80.6729 221.703L78.6906 221.437L77.0106 233.967L78.9929 234.233ZM80.6615 221.77L81.9915 215.26L80.032 214.86L78.702 221.37L80.6615 221.77ZM81.0117 216.06H94.3117V214.06H81.0117V216.06ZM93.331 214.865L85.771 252.805L87.7324 253.195L95.2924 215.255L93.331 214.865ZM86.7517 252H74.1517V254H86.7517V252ZM104.125 253L103.144 252.81L102.913 254H104.125V253ZM110.005 222.69L110.783 222.061L109.432 220.393L109.024 222.5L110.005 222.69ZM112.385 225.63V226.63H114.482L113.163 225.001L112.385 225.63ZM97.4054 225.63L96.4258 225.429L96.1792 226.63H97.4054V225.63ZM99.5754 215.06V214.06H98.7598L98.5958 214.859L99.5754 215.06ZM137.235 215.06L138.215 215.261L138.462 214.06H137.235V215.06ZM135.065 225.63V226.63H135.881L136.045 225.831L135.065 225.63ZM119.805 225.63L119.162 224.864L117.06 226.63H119.805V225.63ZM123.305 222.69L124.287 222.88L124.825 220.108L122.662 221.924L123.305 222.69ZM117.425 253V254H118.25L118.407 253.19L117.425 253ZM105.107 253.19L110.987 222.88L109.024 222.5L103.144 252.81L105.107 253.19ZM109.228 223.319L111.608 226.259L113.163 225.001L110.783 222.061L109.228 223.319ZM112.385 224.63H97.4054V226.63H112.385V224.63ZM98.385 225.831L100.555 215.261L98.5958 214.859L96.4258 225.429L98.385 225.831ZM99.5754 216.06H137.235V214.06H99.5754V216.06ZM136.256 214.859L134.086 225.429L136.045 225.831L138.215 215.261L136.256 214.859ZM135.065 224.63H119.805V226.63H135.065V224.63ZM120.449 226.396L123.949 223.456L122.662 221.924L119.162 224.864L120.449 226.396ZM122.324 222.5L116.444 252.81L118.407 253.19L124.287 222.88L122.324 222.5ZM117.425 252H104.125V254H117.425V252ZM143.895 251.53L143.459 252.43L143.467 252.434L143.476 252.438L143.895 251.53ZM136.895 245.51L136.053 246.051L136.058 246.058L136.895 245.51ZM137.245 225.14L138.108 225.645L138.111 225.64L137.245 225.14ZM145.295 217.3L144.81 216.425L145.295 217.3ZM167.275 216.53L166.821 217.421L166.827 217.424L167.275 216.53ZM173.715 222.41L172.854 222.92L172.86 222.929L172.866 222.939L173.715 222.41ZM175.815 234.31L174.824 234.175L175.815 234.31ZM175.255 237.32V238.32H176.045L176.227 237.552L175.255 237.32ZM144.805 237.32L143.821 237.143L143.609 238.32H144.805V237.32ZM146.065 230.32V229.32H145.229L145.081 230.143L146.065 230.32ZM169.095 230.32L169.439 231.259L169.095 229.32V230.32ZM163.565 232.35L162.585 232.149L162.224 233.907L163.909 233.289L163.565 232.35ZM163.355 227.8L162.417 228.147L162.425 228.169L162.434 228.19L163.355 227.8ZM160.905 224.93L160.375 225.778L160.395 225.791L160.416 225.803L160.905 224.93ZM151.385 225.49L150.776 224.696L150.77 224.701L150.763 224.707L151.385 225.49ZM148.305 229.9L147.368 229.549L147.363 229.562L148.305 229.9ZM149.495 241.66L148.838 242.414L148.845 242.42L148.852 242.426L149.495 241.66ZM160.905 242.71L161.213 243.661L161.221 243.659L161.229 243.656L160.905 242.71ZM165.175 240.4L166.008 239.847L165.401 238.932L164.546 239.622L165.175 240.4ZM170.705 248.73L171.302 249.532L172.062 248.966L171.538 248.177L170.705 248.73ZM162.935 252.51L162.677 251.544L162.673 251.545L162.935 252.51ZM154.535 252.63C150.589 252.63 147.191 251.95 144.314 250.622L143.476 252.438C146.666 253.91 150.361 254.63 154.535 254.63V252.63ZM144.331 250.63C141.493 249.256 139.304 247.365 137.731 244.962L136.058 246.058C137.845 248.788 140.323 250.911 143.459 252.43L144.331 250.63ZM137.736 244.969C136.172 242.537 135.375 239.673 135.375 236.34H133.375C133.375 240.007 134.257 243.256 136.054 246.051L137.736 244.969ZM135.375 236.34C135.375 232.298 136.294 228.742 138.108 225.645L136.382 224.635C134.369 228.071 133.375 231.982 133.375 236.34H135.375ZM138.111 225.64C139.93 222.489 142.479 220.003 145.779 218.175L144.81 216.425C141.203 218.424 138.386 221.164 136.379 224.64L138.111 225.64ZM145.779 218.175C149.062 216.356 152.904 215.43 157.335 215.43V213.43C152.619 213.43 148.434 214.418 144.81 216.425L145.779 218.175ZM157.335 215.43C161.09 215.43 164.24 216.109 166.821 217.421L167.728 215.639C164.803 214.151 161.326 213.43 157.335 213.43V215.43ZM166.827 217.424C169.468 218.745 171.466 220.576 172.854 222.92L174.575 221.9C172.977 219.203 170.681 217.115 167.722 215.636L166.827 217.424ZM172.866 222.939C174.294 225.232 175.025 227.937 175.025 231.09H177.025C177.025 227.616 176.215 224.534 174.564 221.881L172.866 222.939ZM175.025 231.09C175.025 232.168 174.957 233.196 174.824 234.175L176.806 234.445C176.952 233.37 177.025 232.252 177.025 231.09H175.025ZM174.824 234.175C174.688 235.17 174.507 236.141 174.282 237.088L176.227 237.552C176.469 236.539 176.661 235.503 176.806 234.445L174.824 234.175ZM175.255 236.32H144.805V238.32H175.255V236.32ZM145.789 237.497L147.049 230.497L145.081 230.143L143.821 237.143L145.789 237.497ZM146.065 231.32H169.095V229.32H146.065V231.32ZM168.75 229.381L163.22 231.411L163.909 233.289L169.439 231.259L168.75 229.381ZM164.544 232.551C164.942 230.611 164.894 228.872 164.276 227.41L162.434 228.19C162.842 229.154 162.934 230.449 162.585 232.149L164.544 232.551ZM164.292 227.453C163.744 225.971 162.768 224.828 161.393 224.057L160.416 225.803C161.374 226.339 162.032 227.109 162.417 228.147L164.292 227.453ZM161.435 224.082C160.118 223.259 158.522 222.88 156.705 222.88V224.88C158.248 224.88 159.452 225.201 160.375 225.778L161.435 224.082ZM156.705 222.88C154.387 222.88 152.386 223.462 150.776 224.696L151.993 226.284C153.183 225.371 154.729 224.88 156.705 224.88V222.88ZM150.763 224.707C149.247 225.909 148.122 227.539 147.368 229.549L149.241 230.251C149.887 228.528 150.816 227.218 152.006 226.273L150.763 224.707ZM147.363 229.562C146.667 231.502 146.325 233.601 146.325 235.85H148.325C148.325 233.806 148.635 231.938 149.246 230.238L147.363 229.562ZM146.325 235.85C146.325 238.643 147.102 240.902 148.838 242.414L150.151 240.906C148.994 239.898 148.325 238.284 148.325 235.85H146.325ZM148.852 242.426C150.553 243.853 152.996 244.48 156.005 244.48V242.48C153.227 242.48 151.33 241.894 150.137 240.894L148.852 242.426ZM156.005 244.48C157.788 244.48 159.526 244.207 161.213 243.661L160.597 241.759C159.11 242.239 157.581 242.48 156.005 242.48V244.48ZM161.229 243.656C162.961 243.062 164.49 242.239 165.803 241.178L164.546 239.622C163.433 240.521 162.115 241.238 160.58 241.764L161.229 243.656ZM164.342 240.953L169.872 249.283L171.538 248.177L166.008 239.847L164.342 240.953ZM170.107 247.928C167.827 249.627 165.351 250.831 162.677 251.544L163.192 253.476C166.118 252.696 168.823 251.379 171.302 249.532L170.107 247.928ZM162.673 251.545C160.005 252.268 157.293 252.63 154.535 252.63V254.63C157.47 254.63 160.358 254.245 163.196 253.475L162.673 251.545ZM178.03 253L177.05 252.803L176.809 254H178.03V253ZM185.66 215.06V214.06H184.841L184.68 214.863L185.66 215.06ZM217.37 215.06L218.351 215.255L218.588 214.06H217.37V215.06ZM215.27 225.63V226.63H216.091L216.251 225.825L215.27 225.63ZM193.71 225.63L193.068 224.863L190.957 226.63H193.71V225.63ZM197.14 222.76L198.122 222.951L198.66 220.185L196.498 221.993L197.14 222.76ZM191.26 253V254H192.084L192.242 253.191L191.26 253ZM179.01 253.197L186.64 215.257L184.68 214.863L177.05 252.803L179.01 253.197ZM185.66 216.06H217.37V214.06H185.66V216.06ZM216.389 214.865L214.289 225.435L216.251 225.825L218.351 215.255L216.389 214.865ZM215.27 224.63H193.71V226.63H215.27V224.63ZM194.352 226.397L197.782 223.527L196.498 221.993L193.068 224.863L194.352 226.397ZM196.158 222.569L190.278 252.809L192.242 253.191L198.122 222.951L196.158 222.569ZM191.26 252H178.03V254H191.26V252ZM223.869 251.46L223.433 252.36L223.869 251.46ZM216.939 245.44L216.091 245.97L216.095 245.977L216.939 245.44ZM217.499 225.14L218.351 225.663L218.354 225.658L217.499 225.14ZM225.759 217.3L225.279 216.423L225.759 217.3ZM248.299 216.6L247.857 217.497L247.866 217.501L247.874 217.505L248.299 216.6ZM255.229 222.55L254.385 223.087L255.229 222.55ZM254.669 242.92L255.524 243.438L254.669 242.92ZM246.409 250.76L246.888 251.637L246.409 250.76ZM239.829 241.73L240.377 242.566L240.387 242.56L240.396 242.553L239.829 241.73ZM242.979 237.95L242.084 237.503L242.079 237.513L242.074 237.524L242.979 237.95ZM242.279 227.1L241.523 227.755L241.529 227.762L241.535 227.769L242.279 227.1ZM229.119 230.11L228.219 229.673L228.214 229.684L229.119 230.11ZM229.889 241.1L229.157 241.781L229.163 241.788L229.169 241.794L229.889 241.1ZM234.369 252.63C230.475 252.63 227.13 251.929 224.305 250.56L223.433 252.36C226.581 253.885 230.235 254.63 234.369 254.63V252.63ZM224.305 250.56C221.469 249.187 219.307 247.299 217.782 244.903L216.095 245.977C217.837 248.714 220.295 250.84 223.433 252.36L224.305 250.56ZM217.787 244.91C216.264 242.474 215.489 239.629 215.489 236.34H213.489C213.489 239.957 214.346 243.179 216.091 245.97L217.787 244.91ZM215.489 236.34C215.489 232.307 216.45 228.758 218.351 225.663L216.647 224.617C214.534 228.056 213.489 231.973 213.489 236.34H215.489ZM218.354 225.658C220.266 222.5 222.888 220.009 226.238 218.177L225.279 216.423C221.629 218.418 218.744 221.153 216.643 224.622L218.354 225.658ZM226.238 218.177C229.572 216.355 233.417 215.43 237.799 215.43V213.43C233.127 213.43 228.945 214.418 225.279 216.423L226.238 218.177ZM237.799 215.43C241.741 215.43 245.083 216.132 247.857 217.497L248.74 215.703C245.634 214.174 241.976 213.43 237.799 213.43V215.43ZM247.874 217.505C250.704 218.832 252.862 220.694 254.385 223.087L256.072 222.013C254.328 219.273 251.867 217.168 248.723 215.695L247.874 217.505ZM254.385 223.087C255.902 225.47 256.679 228.311 256.679 231.65H258.679C258.679 227.989 257.822 224.763 256.072 222.013L254.385 223.087ZM256.679 231.65C256.679 235.683 255.717 239.258 253.813 242.402L255.524 243.438C257.633 239.955 258.679 236.017 258.679 231.65H256.679ZM253.813 242.402C251.901 245.56 249.279 248.051 245.929 249.883L246.888 251.637C250.538 249.642 253.423 246.907 255.524 243.438L253.813 242.402ZM245.929 249.883C242.595 251.705 238.751 252.63 234.369 252.63V254.63C239.04 254.63 243.222 253.642 246.888 251.637L245.929 249.883ZM235.139 244.06C237.087 244.06 238.845 243.57 240.377 242.566L239.281 240.894C238.106 241.663 236.737 242.06 235.139 242.06V244.06ZM240.396 242.553C241.905 241.513 243.067 240.111 243.883 238.376L242.074 237.524C241.397 238.962 240.459 240.081 239.261 240.907L240.396 242.553ZM243.873 238.397C244.749 236.646 245.169 234.62 245.169 232.35H243.169C243.169 234.374 242.795 236.081 242.084 237.503L243.873 238.397ZM245.169 232.35C245.169 230.034 244.467 228.036 243.022 226.431L241.535 227.769C242.611 228.964 243.169 230.466 243.169 232.35H245.169ZM243.034 226.445C241.588 224.776 239.531 224 237.029 224V226C239.099 226 240.543 226.624 241.523 227.755L243.034 226.445ZM237.029 224C235.08 224 233.322 224.49 231.791 225.494L232.887 227.166C234.062 226.397 235.43 226 237.029 226V224ZM231.791 225.494C230.268 226.491 229.081 227.898 228.219 229.673L230.018 230.547C230.742 229.056 231.702 227.942 232.887 227.166L231.791 225.494ZM228.214 229.684C227.392 231.431 226.999 233.448 226.999 235.71H228.999C228.999 233.678 229.352 231.963 230.023 230.536L228.214 229.684ZM226.999 235.71C226.999 238.146 227.689 240.205 229.157 241.781L230.62 240.419C229.568 239.288 228.999 237.754 228.999 235.71H226.999ZM229.169 241.794C230.66 243.34 232.695 244.06 235.139 244.06V242.06C233.102 242.06 231.638 241.473 230.608 240.406L229.169 241.794ZM277.981 251.88L277.505 252.759L277.512 252.763L277.519 252.767L277.981 251.88ZM273.081 246.07L274.014 245.71L273.081 246.07ZM272.381 235.43L273.373 235.555L273.375 235.546L273.376 235.537L272.381 235.43ZM275.391 224.23L274.5 223.777L274.494 223.788L275.391 224.23ZM281.551 217.02L282.106 217.852L282.109 217.85L281.551 217.02ZM298.211 216.46L297.724 217.333L297.731 217.337L298.211 216.46ZM304.161 222.34L303.297 222.843L303.302 222.852L303.308 222.861L304.161 222.34ZM304.861 240.4L305.789 240.774L304.861 240.4ZM300.381 247.4L299.658 246.71L299.657 246.71L300.381 247.4ZM293.871 252.02L294.269 252.937L294.277 252.934L294.284 252.931L293.871 252.02ZM257.331 266.58L256.351 266.384L256.112 267.58H257.331V266.58ZM267.621 215.06V214.06H266.801L266.641 214.864L267.621 215.06ZM280.221 215.06L281.2 215.264L281.452 214.06H280.221V215.06ZM278.891 221.43L277.912 221.226L277.91 221.238L278.891 221.43ZM276.441 233.96L275.46 233.768L275.455 233.794L275.451 233.821L276.441 233.96ZM274.691 246.42L275.672 246.617L275.677 246.588L275.682 246.559L274.691 246.42ZM270.631 266.58V267.58H271.45L271.612 266.777L270.631 266.58ZM288.691 241.59L289.239 242.426L288.691 241.59ZM291.841 237.88L290.947 237.433L290.942 237.443L290.937 237.454L291.841 237.88ZM291.141 227.1L290.409 227.781L290.415 227.788L290.421 227.794L291.141 227.1ZM281.131 226.47L281.679 227.306L281.686 227.302L281.131 226.47ZM277.911 230.18L277.017 229.733L277.012 229.743L277.007 229.754L277.911 230.18ZM278.681 240.96L279.401 240.266L278.681 240.96ZM285.891 252.63C282.987 252.63 280.515 252.072 278.443 250.993L277.519 252.767C279.928 254.021 282.729 254.63 285.891 254.63V252.63ZM278.458 251.001C276.452 249.914 274.966 248.176 274.014 245.71L272.148 246.43C273.25 249.284 275.031 251.419 277.505 252.759L278.458 251.001ZM274.014 245.71C273.072 243.268 272.824 239.909 273.373 235.555L271.389 235.305C270.819 239.818 271.038 243.552 272.148 246.43L274.014 245.71ZM273.376 235.537C273.833 231.285 274.811 227.671 276.288 224.672L274.494 223.788C272.891 227.043 271.863 230.895 271.387 235.323L273.376 235.537ZM276.283 224.683C277.804 221.685 279.75 219.423 282.106 217.852L280.997 216.188C278.312 217.977 276.152 220.522 274.5 223.777L276.283 224.683ZM282.109 217.85C284.497 216.244 287.262 215.43 290.441 215.43V213.43C286.9 213.43 283.739 214.343 280.993 216.19L282.109 217.85ZM290.441 215.43C293.023 215.43 295.445 216.062 297.724 217.333L298.698 215.587C296.124 214.151 293.367 213.43 290.441 213.43V215.43ZM297.731 217.337C300.036 218.598 301.89 220.425 303.297 222.843L305.026 221.837C303.446 219.122 301.333 217.028 298.691 215.583L297.731 217.337ZM303.308 222.861C304.731 225.19 305.471 228.102 305.471 231.65H307.471C307.471 227.825 306.672 224.53 305.015 221.819L303.308 222.861ZM305.471 231.65C305.471 234.709 304.954 237.497 303.934 240.026L305.789 240.774C306.915 237.983 307.471 234.938 307.471 231.65H305.471ZM303.934 240.026C302.906 242.573 301.481 244.798 299.658 246.71L301.105 248.09C303.109 245.989 304.67 243.547 305.789 240.774L303.934 240.026ZM299.657 246.71C297.879 248.577 295.815 250.042 293.459 251.109L294.284 252.931C296.874 251.758 299.15 250.143 301.105 248.09L299.657 246.71ZM293.473 251.103C291.132 252.118 288.609 252.63 285.891 252.63V254.63C288.867 254.63 291.664 254.068 294.269 252.937L293.473 251.103ZM258.312 266.776L268.602 215.256L266.641 214.864L256.351 266.384L258.312 266.776ZM267.621 216.06H280.221V214.06H267.621V216.06ZM279.242 214.856L277.912 221.226L279.87 221.634L281.2 215.264L279.242 214.856ZM277.91 221.238L275.46 233.768L277.423 234.152L279.873 221.622L277.91 221.238ZM275.451 233.821L273.701 246.281L275.682 246.559L277.432 234.099L275.451 233.821ZM273.711 246.223L269.651 266.383L271.612 266.777L275.672 246.617L273.711 246.223ZM270.631 265.58H257.331V267.58H270.631V265.58ZM284.001 243.92C285.95 243.92 287.708 243.43 289.239 242.426L288.143 240.754C286.968 241.523 285.599 241.92 284.001 241.92V243.92ZM289.239 242.426C290.76 241.43 291.928 240.045 292.746 238.306L290.937 237.454C290.262 238.888 289.329 239.977 288.143 240.754L289.239 242.426ZM292.736 238.327C293.61 236.578 294.031 234.577 294.031 232.35H292.031C292.031 234.323 291.659 236.008 290.947 237.433L292.736 238.327ZM294.031 232.35C294.031 229.955 293.337 227.936 291.861 226.406L290.421 227.794C291.466 228.877 292.031 230.358 292.031 232.35H294.031ZM291.873 226.419C290.381 224.816 288.315 224.07 285.821 224.07V226.07C287.901 226.07 289.382 226.678 290.409 227.781L291.873 226.419ZM285.821 224.07C283.903 224.07 282.145 224.592 280.577 225.638L281.686 227.302C282.917 226.481 284.287 226.07 285.821 226.07V224.07ZM280.583 225.634C279.068 226.626 277.881 228.004 277.017 229.733L278.806 230.627C279.528 229.183 280.488 228.087 281.679 227.306L280.583 225.634ZM277.007 229.754C276.186 231.498 275.791 233.491 275.791 235.71H277.791C277.791 233.729 278.143 232.036 278.816 230.606L277.007 229.754ZM275.791 235.71C275.791 238.105 276.486 240.124 277.961 241.654L279.401 240.266C278.357 239.183 277.791 237.702 277.791 235.71H275.791ZM277.961 241.654C279.456 243.204 281.518 243.92 284.001 243.92V241.92C281.911 241.92 280.426 241.329 279.401 240.266L277.961 241.654ZM309.075 253L308.095 252.803L307.854 254H309.075V253ZM316.705 215.06V214.06H315.886L315.725 214.863L316.705 215.06ZM329.935 215.06L330.914 215.264L331.165 214.06H329.935V215.06ZM325.735 235.22L324.756 235.016L324.061 238.35L326.448 235.921L325.735 235.22ZM345.545 215.06V214.06H345.126L344.832 214.359L345.545 215.06ZM358.075 215.06L359.055 215.257L359.296 214.06H358.075V215.06ZM350.445 253V254H351.264L351.425 253.197L350.445 253ZM337.145 253L336.167 252.793L335.912 254H337.145V253ZM341.415 232.77L342.393 232.977L343.102 229.617L340.701 232.07L341.415 232.77ZM321.605 253V254H322.025L322.319 253.7L321.605 253ZM310.055 253.197L317.685 215.257L315.725 214.863L308.095 252.803L310.055 253.197ZM316.705 216.06H329.935V214.06H316.705V216.06ZM328.956 214.856L324.756 235.016L326.714 235.424L330.914 215.264L328.956 214.856ZM326.448 235.921L346.258 215.761L344.832 214.359L325.022 234.519L326.448 235.921ZM345.545 216.06H358.075V214.06H345.545V216.06ZM357.095 214.863L349.465 252.803L351.425 253.197L359.055 215.257L357.095 214.863ZM350.445 252H337.145V254H350.445V252ZM338.123 253.207L342.393 232.977L340.437 232.563L336.167 252.793L338.123 253.207ZM340.701 232.07L320.891 252.3L322.319 253.7L342.129 233.47L340.701 232.07ZM321.605 252H309.075V254H321.605V252ZM359.388 253L358.407 252.803L358.166 254H359.388V253ZM367.017 215.06V214.06H366.199L366.037 214.863L367.017 215.06ZM380.247 215.06L381.226 215.264L381.477 214.06H380.247V215.06ZM376.048 235.22L375.069 235.016L374.374 238.35L376.761 235.921L376.048 235.22ZM395.858 215.06V214.06H395.438L395.144 214.359L395.858 215.06ZM408.388 215.06L409.368 215.257L409.609 214.06H408.388V215.06ZM400.758 253V254H401.576L401.738 253.197L400.758 253ZM387.457 253L386.479 252.793L386.224 254H387.457V253ZM391.728 232.77L392.706 232.977L393.415 229.617L391.013 232.07L391.728 232.77ZM371.918 253V254H372.338L372.632 253.7L371.918 253ZM360.368 253.197L367.998 215.257L366.037 214.863L358.407 252.803L360.368 253.197ZM367.017 216.06H380.247V214.06H367.017V216.06ZM379.269 214.856L375.069 235.016L377.026 235.424L381.226 215.264L379.269 214.856ZM376.761 235.921L396.571 215.761L395.144 214.359L375.334 234.519L376.761 235.921ZM395.858 216.06H408.388V214.06H395.858V216.06ZM407.407 214.863L399.777 252.803L401.738 253.197L409.368 215.257L407.407 214.863ZM400.758 252H387.457V254H400.758V252ZM388.436 253.207L392.706 232.977L390.749 232.563L386.479 252.793L388.436 253.207ZM391.013 232.07L371.203 252.3L372.632 253.7L392.442 233.47L391.013 232.07ZM371.918 252H359.388V254H371.918V252Z" fill="black" mask="url(#path-2-outside-1_282_733)"/>
</svg>
